<svg id="undraw_mobile_encryption_re_yw3o" xmlns="http://www.w3.org/2000/svg" width="296.409" height="268.768" viewBox="0 0 296.409 268.768">
  <g id="Grupo_51" data-name="Grupo 51" transform="translate(96.396)">
    <path id="Caminho_43" data-name="Caminho 43" d="M293.49,268.091H209.385a22.9,22.9,0,0,1-22.878-22.878V22.878A22.9,22.9,0,0,1,209.385,0H293.49a22.9,22.9,0,0,1,22.877,22.878c1.566,89.283,4.235,189.266,0,222.335a22.9,22.9,0,0,1-22.877,22.878h0Z" transform="translate(-185.055)" fill="#3f3d56"/>
    <path id="Caminho_44" data-name="Caminho 44" d="M435.392,155.885a.969.969,0,0,0-.968.968v30.971a.968.968,0,0,0,1.936,0V156.853A.969.969,0,0,0,435.392,155.885Z" transform="translate(-302.907 -74.103)" fill="#3f3d56"/>
    <path id="Caminho_45" data-name="Caminho 45" d="M316.164,24.849V247.18a20.7,20.7,0,0,1-19.352,20.658h0c-.16.01-.319.019-.484.024-.286.015-.571.019-.861.019,0,0-1.065-.077-3.01-.223-1.965-.145-4.825-.363-8.391-.648q-1.6-.123-3.387-.271c-2.371-.194-4.975-.406-7.767-.648-1.113-.092-2.265-.194-3.441-.3-6.01-.518-12.742-1.123-19.841-1.81q-1.8-.167-3.629-.348c-.319-.034-55.337-13.864-55.337-16.458V24.849a20.7,20.7,0,0,1,20.7-20.7H223.72a3.774,3.774,0,0,1,3.731,3.508c.014.131.029.261.053.392a4.205,4.205,0,0,0,4.186,3.358h43.442a4.205,4.205,0,0,0,4.186-3.358c.024-.131.039-.261.053-.392A3.774,3.774,0,0,1,283.1,4.147h12.359a20.7,20.7,0,0,1,20.7,20.7h0Z" transform="translate(-187.029 -1.971)" fill="#fff"/>
    <path id="Caminho_46" data-name="Caminho 46" d="M184.708,111.61a.969.969,0,0,0-.968.968v7.743a.968.968,0,0,0,1.936,0v-7.743A.969.969,0,0,0,184.708,111.61Z" transform="translate(-183.74 -53.056)" fill="#3f3d56"/>
    <path id="Caminho_47" data-name="Caminho 47" d="M184.708,155.885a.969.969,0,0,0-.968.968v15a.968.968,0,0,0,1.936,0v-15a.969.969,0,0,0-.968-.968Z" transform="translate(-183.74 -74.103)" fill="#3f3d56"/>
    <path id="Caminho_48" data-name="Caminho 48" d="M184.708,196.47a.969.969,0,0,0-.968.968v15a.968.968,0,0,0,1.936,0v-15A.969.969,0,0,0,184.708,196.47Z" transform="translate(-183.74 -93.395)" fill="#3f3d56"/>
    <rect id="Retângulo_37" data-name="Retângulo 37" width="18.873" height="2.42" rx="0.31" transform="translate(17.663 5.565)" fill="#e6e6e6"/>
    <circle id="Elipse_10" data-name="Elipse 10" cx="1.936" cy="1.936" r="1.936" transform="translate(97.196 4.113)" fill="#e6e6e6"/>
    <circle id="Elipse_11" data-name="Elipse 11" cx="1.936" cy="1.936" r="1.936" transform="translate(102.519 4.113)" fill="#e6e6e6"/>
    <circle id="Elipse_12" data-name="Elipse 12" cx="1.936" cy="1.936" r="1.936" transform="translate(107.842 4.113)" fill="#e6e6e6"/>
  </g>
  <path id="Caminho_49" data-name="Caminho 49" d="M14.314,510.54a.622.622,0,0,0,.624.624H302.59a.624.624,0,0,0,0-1.249H14.939a.622.622,0,0,0-.624.624Z" transform="translate(-6.805 -242.397)" fill="#ccc"/>
  <g id="Grupo_52" data-name="Grupo 52" transform="translate(78.735 241.289)">
    <path id="Caminho_50" data-name="Caminho 50" d="M181.246,482.673h-5.9l-2.806-22.753h8.706Z" transform="translate(-160.755 -459.92)" fill="#ffb6b6"/>
    <path id="Caminho_51" data-name="Caminho 51" d="M150.357,497h0a5.065,5.065,0,0,0-.281,1.667h0a2,2,0,0,0,2,2h18.268a1.366,1.366,0,0,0,1.366-1.366v-.761a5.839,5.839,0,0,0-.957-5.1s-2.312,2.206-5.768-1.249l-1.019-1.846-7.376,5.394-4.088.5c-.894.11-1.687-.017-2.148.758h0Z" transform="translate(-150.076 -474.385)" fill="#2f2e41"/>
  </g>
  <g id="Grupo_53" data-name="Grupo 53" transform="translate(46.109 209.659)">
    <path id="Caminho_52" data-name="Caminho 52" d="M119.132,422.41l-5.9-.019L110.5,399.629l8.706.028Z" transform="translate(-98.636 -399.629)" fill="#ffb6b6"/>
    <path id="Caminho_53" data-name="Caminho 53" d="M88.173,436.684h0a5.065,5.065,0,0,0-.286,1.667h0a2,2,0,0,0,2,2.008l18.268.058a1.366,1.366,0,0,0,1.37-1.361l0-.761a5.839,5.839,0,0,0-.941-5.106s-2.319,2.2-5.764-1.268l-1.013-1.849-7.393,5.371-4.09.49c-.895.107-1.687-.022-2.15.751h0Z" transform="translate(-87.887 -414.1)" fill="#2f2e41"/>
  </g>
  <path id="Caminho_54" data-name="Caminho 54" d="M138.56,240l-7.345.525s-24.865,14.137-26.964,17.285-4.984,7.607-2.361,12.329.627,61.893.627,61.893l12.535-2.836,8.031-59.816,16.788-2.361s5.771,12.451,3.672,22.751-3.148,16.6-3.148,16.6l-2.623,60.857,10.23-.262,9.181-56.4,15.739-44.594-20.461-24.133L138.56,240Z" transform="translate(-47.938 -114.088)" fill="#2f2e41"/>
  <path id="Caminho_55" data-name="Caminho 55" d="M203.7,117l-15.214,1.574-1.574,5.246-14.69,7.87,4.722,33.052-3.672,5.771,1.574,5.771s-4.2.525-3.672,3.672l-9.443,1.574s12.525,2.557,15.181,15.181,24.691,14.2,24.691,14.2l17.313-54.037,1.574-32-12.067-3.148Z" transform="translate(-76.883 -55.618)" fill="#e6e6e6"/>
  <circle id="Elipse_13" data-name="Elipse 13" cx="11.827" cy="11.827" r="11.827" transform="translate(106.976 35.737)" fill="#ffb6b6"/>
  <path id="Caminho_56" data-name="Caminho 56" d="M205.257,87.232h0s-10.493-.525-9.443-8.919c-2.6-8.939-.3-14.743,7.87-16.788A22.722,22.722,0,0,1,206.306,61c6.9,0,10.493,2.1,10.493,2.1s-.525-2.078,0-1.564a7.312,7.312,0,0,1,1.049,1.564s5.246,2.623,5.246,7.869v3.148s-1.049,0-2.1-3.148-7.843-1.049-7.843-1.049l.5,1.049-1.574-.525L210.5,72.017l-1.049-.525h-3.672c.525,0,.159,3.565.159,3.565l-3.831,4.3,4.2,7.869h-1.049Z" transform="translate(-92.6 -28.997)" fill="#2f2e41"/>
  <path id="Caminho_57" data-name="Caminho 57" d="M104.693,222.493c-2.987,1.63-4.567,4.493-3.53,6.393s4.3,2.12,7.287.49a8.517,8.517,0,0,0,3.012-2.665l12.57-7.066-3.442-5.828L108.564,221.4a8.517,8.517,0,0,0-3.871,1.092Z" transform="translate(-47.938 -101.641)" fill="#ffb6b6"/>
  <path id="Caminho_58" data-name="Caminho 58" d="M156.366,144.8s-4.927-1.876-6.625.382-12.913,29.66-12.913,29.66l-16.455,8.594L125,191.5l21.189-7.054,13.98-25.567Z" transform="translate(-57.221 -68.488)" fill="#e6e6e6"/>
  <g id="Grupo_60" data-name="Grupo 60" transform="translate(99.234 102.207)">
    <path id="Caminho_59" data-name="Caminho 59" d="M344.44,308.917v55.611a8.929,8.929,0,0,1-8.919,8.919H198.068a8.929,8.929,0,0,1-8.919-8.919V308.917A8.929,8.929,0,0,1,198.068,300H335.522A8.929,8.929,0,0,1,344.44,308.917Z" transform="translate(-189.149 -244.816)" fill="#fff"/>
    <path id="Caminho_60" data-name="Caminho 60" d="M344.44,308.917v55.611a8.929,8.929,0,0,1-8.919,8.919H198.068a8.929,8.929,0,0,1-8.919-8.919V308.917A8.929,8.929,0,0,1,198.068,300H335.522A8.929,8.929,0,0,1,344.44,308.917ZM335.522,372.4a7.87,7.87,0,0,0,7.87-7.87V336.491a35.444,35.444,0,0,0-35.444-35.444H198.068a7.87,7.87,0,0,0-7.87,7.87v55.611a7.869,7.869,0,0,0,7.87,7.87Z" transform="translate(-189.149 -244.816)" fill="#3f3d56"/>
    <g id="Grupo_54" data-name="Grupo 54" transform="translate(42.928 88.78)">
      <path id="Caminho_61" data-name="Caminho 61" d="M289.749,364.039H271.8a.821.821,0,1,0,0,1.642h17.953a.821.821,0,0,0,0-1.642Z" transform="translate(-270.975 -364.039)" fill="#38c1be"/>
      <path id="Caminho_62" data-name="Caminho 62" d="M341.749,364.039H323.8a.821.821,0,1,0,0,1.642h17.953a.821.821,0,0,0,0-1.642Z" transform="translate(-295.694 -364.039)" fill="#38c1be"/>
    </g>
    <g id="Grupo_55" data-name="Grupo 55" transform="translate(42.928 97.755)">
      <path id="Caminho_63" data-name="Caminho 63" d="M289.749,381.145H271.8a.821.821,0,1,0,0,1.642h17.953a.821.821,0,0,0,0-1.642Z" transform="translate(-270.975 -381.145)" fill="#38c1be"/>
      <path id="Caminho_64" data-name="Caminho 64" d="M341.749,381.145H323.8a.821.821,0,1,0,0,1.642h17.953a.821.821,0,0,0,0-1.642Z" transform="translate(-295.694 -381.145)" fill="#38c1be"/>
      <path id="Caminho_65" data-name="Caminho 65" d="M394.569,381.966a.822.822,0,0,0-.821-.821H375.8a.821.821,0,1,0,0,1.642h17.953A.822.822,0,0,0,394.569,381.966Z" transform="translate(-320.413 -381.145)" fill="#38c1be"/>
    </g>
    <g id="Grupo_56" data-name="Grupo 56" transform="translate(32.436 79.639)">
      <path id="Caminho_66" data-name="Caminho 66" d="M269.749,348.894a.821.821,0,0,0,0-1.642H251.8a.821.821,0,1,0,0,1.642Z" transform="translate(-250.975 -346.918)" fill="#38c1be"/>
      <path id="Caminho_67" data-name="Caminho 67" d="M386.8,348.257h17.953a.821.821,0,0,0,0-1.642H386.8a.821.821,0,1,0,0,1.642Z" transform="translate(-315.149 -346.615)" fill="#38c1be"/>
      <path id="Caminho_68" data-name="Caminho 68" d="M300.432,348.586h37.221a.821.821,0,0,0,0-1.642H300.432a.821.821,0,1,0,0,1.642Z" transform="translate(-274.095 -346.771)" fill="#38c1be"/>
    </g>
    <path id="Caminho_69" data-name="Caminho 69" d="M312.079,396.687H294.126a.821.821,0,1,0,0,1.642h17.953a.821.821,0,0,0,0-1.642Z" transform="translate(-238.661 -290.778)" fill="#38c1be"/>
    <g id="Grupo_57" data-name="Grupo 57" transform="translate(57.952 54.763)">
      <path id="Caminho_70" data-name="Caminho 70" d="M373.06,308.118v55.611a8.929,8.929,0,0,1-8.919,8.919H308.53a8.929,8.929,0,0,1-8.919-8.919V308.118a8.929,8.929,0,0,1,8.919-8.919h55.611A8.929,8.929,0,0,1,373.06,308.118Z" transform="translate(-299.611 -299.199)" fill="#fff"/>
      <path id="Caminho_71" data-name="Caminho 71" d="M373.06,308.118v55.611a8.929,8.929,0,0,1-8.919,8.919H308.53a8.929,8.929,0,0,1-8.919-8.919V308.118a8.929,8.929,0,0,1,8.919-8.919h55.611A8.929,8.929,0,0,1,373.06,308.118ZM360.691,371.6a11.319,11.319,0,0,0,11.319-11.319V335.692a35.444,35.444,0,0,0-35.444-35.444H308.53a7.869,7.869,0,0,0-7.87,7.87V355.97A15.629,15.629,0,0,0,316.289,371.6h44.4Z" transform="translate(-299.611 -299.199)" fill="#3f3d56"/>
      <path id="Caminho_72" data-name="Caminho 72" d="M366.711,341H348.758a.821.821,0,1,1,0-1.642h17.953a.821.821,0,0,1,0,1.642Z" transform="translate(-322.583 -318.291)" fill="#38c1be"/>
      <path id="Caminho_73" data-name="Caminho 73" d="M366.711,374.368H348.758a.821.821,0,1,1,0-1.642h17.953a.821.821,0,0,1,0,1.642Z" transform="translate(-322.583 -334.151)" fill="#38c1be"/>
      <path id="Caminho_74" data-name="Caminho 74" d="M349.711,420.368H331.758a.821.821,0,1,1,0-1.642h17.953a.821.821,0,0,1,0,1.642Z" transform="translate(-314.502 -356.018)" fill="#38c1be"/>
      <path id="Caminho_75" data-name="Caminho 75" d="M367.615,357.7H330.394a.821.821,0,1,1,0-1.642h37.221a.821.821,0,0,1,0,1.642Z" transform="translate(-313.854 -326.226)" fill="#38c1be"/>
    </g>
    <g id="Grupo_59" data-name="Grupo 59" transform="translate(56.905)">
      <g id="Grupo_58" data-name="Grupo 58">
        <path id="Caminho_76" data-name="Caminho 76" d="M361.647,227.682c0-17.348-14.663-26.892-31.412-31.412-21.474-5.8-37.2,5.932-31.412,31.412a57.818,57.818,0,0,0,8.335,18.289h30.824C348.279,239.267,361.647,241.147,361.647,227.682Z" transform="translate(-297.614 -194.815)" fill="#38c1be"/>
        <path id="Caminho_77" data-name="Caminho 77" d="M338.577,313.095a22.129,22.129,0,0,1,6.426-7.59H316.132C323.563,316.119,333.417,322.931,338.577,313.095Z" transform="translate(-306.417 -247.433)" fill="#38c1be"/>
      </g>
      <path id="Caminho_78" data-name="Caminho 78" d="M344.962,220.542a3.356,3.356,0,0,1,3.356,3.356v6.712h-6.712V223.9A3.356,3.356,0,0,1,344.962,220.542ZM350,230.61V223.9a5.034,5.034,0,0,0-10.068,0v6.712a3.356,3.356,0,0,0-3.356,3.356v8.39a3.356,3.356,0,0,0,3.356,3.356H350a3.356,3.356,0,0,0,3.356-3.356v-8.39A3.356,3.356,0,0,0,350,230.61h0Zm-10.068,1.678H350a1.678,1.678,0,0,1,1.678,1.678v8.39A1.678,1.678,0,0,1,350,244.033H339.928a1.678,1.678,0,0,1-1.678-1.678v-8.39a1.678,1.678,0,0,1,1.678-1.678Z" transform="translate(-316.133 -206.247)" fill="#fff"/>
    </g>
  </g>
  <path id="Caminho_79" data-name="Caminho 79" d="M261.087,280.25c-.4,3.379,1.01,6.326,3.16,6.584s4.221-2.273,4.626-5.651a8.517,8.517,0,0,0-.424-4l1.535-14.338-6.744-.577-.8,14.2a8.517,8.517,0,0,0-1.356,3.786Z" transform="translate(-124.079 -124.673)" fill="#ffb6b6"/>
  <path id="Caminho_80" data-name="Caminho 80" d="M261.857,132.879s7.345-2.1,8.919,1.049,5.246,44.594,5.246,44.594l-7.083,33.083-8.132-2.13L265,175.9l-5.771-25.182,2.623-17.838Z" transform="translate(-123.231 -62.841)" fill="#e6e6e6"/>
  <g id="Grupo_61" data-name="Grupo 61" transform="translate(0 109.302)">
    <circle id="Elipse_14" data-name="Elipse 14" cx="30.691" cy="30.691" r="30.691" fill="#38c1be"/>
    <path id="Caminho_81" data-name="Caminho 81" d="M49.608,238.873a3.926,3.926,0,0,1,3.926,3.926v7.851H45.682V242.8a3.926,3.926,0,0,1,3.926-3.926ZM55.5,250.649V242.8a5.888,5.888,0,1,0-11.777,0v7.851a3.926,3.926,0,0,0-3.926,3.926v9.814a3.926,3.926,0,0,0,3.926,3.926H55.5a3.926,3.926,0,0,0,3.926-3.926v-9.814a3.926,3.926,0,0,0-3.926-3.926h0Zm-11.777,1.963H55.5a1.963,1.963,0,0,1,1.963,1.963v9.814a1.963,1.963,0,0,1-1.963,1.963H43.719a1.963,1.963,0,0,1-1.963-1.963v-9.814A1.963,1.963,0,0,1,43.719,252.612Z" transform="translate(-18.917 -221.921)" fill="#fff"/>
  </g>
</svg>
